<svg width="397" height="641" viewBox="0 0 397 641" fill="none" xmlns="http://www.w3.org/2000/svg">
<path d="M254.375 273.616C254.375 282.984 254.545 290.457 254.692 296.359C254.706 296.887 254.719 297.402 254.731 297.905C254.861 303.03 254.958 306.858 254.879 309.659C254.836 311.196 254.74 312.402 254.573 313.331C254.405 314.268 254.173 314.87 253.896 315.241C253.639 315.585 253.328 315.755 252.895 315.797C252.429 315.842 251.812 315.739 250.983 315.469C249.743 315.065 248.181 314.345 246.177 313.42C245.488 313.102 244.747 312.76 243.949 312.399C240.853 310.997 236.96 309.333 232.083 307.739C222.327 304.549 208.656 301.645 189.541 301.645C151.695 301.645 123.273 277.807 104.284 244.528C85.2941 211.246 75.7956 168.605 75.7956 131.239C75.7956 112.758 87.5591 95.333 106.573 79.5578C125.575 63.7927 151.727 49.753 180.292 38.0394C237.427 14.6093 304.065 0.543665 342.089 0.543665C351.497 0.543665 357.041 3.59876 359.743 8.93107C362.48 14.3325 362.39 22.2255 360.096 32.0984C355.516 51.8182 342.275 78.9368 326.608 108.47C321.723 117.68 316.603 127.121 311.441 136.641C300.067 157.616 288.49 178.967 278.769 199.033C271.701 213.624 265.605 227.552 261.276 240.182C256.95 252.806 254.375 264.168 254.375 273.616Z" stroke="#EA9528" stroke-width="1.08733"/>
<path d="M260.67 277.49C260.67 286.858 260.84 294.331 260.987 300.233C261.001 300.761 261.014 301.276 261.026 301.779C261.156 306.904 261.253 310.732 261.174 313.533C261.131 315.07 261.035 316.276 260.868 317.205C260.7 318.142 260.468 318.744 260.191 319.116C259.934 319.459 259.623 319.629 259.19 319.671C258.724 319.716 258.107 319.613 257.278 319.343C256.038 318.939 254.476 318.219 252.472 317.294C251.783 316.976 251.042 316.634 250.244 316.273C247.148 314.871 243.255 313.207 238.378 311.613C228.622 308.423 214.951 305.519 195.836 305.519C157.99 305.519 129.568 281.681 110.579 248.402C91.5891 215.12 82.0905 172.479 82.0905 135.113C82.0905 116.632 93.854 99.207 112.868 83.4318C131.87 67.6668 158.022 53.6271 186.587 41.9134C243.722 18.4833 310.36 4.41769 348.383 4.41769C357.792 4.41769 363.336 7.47278 366.038 12.8051C368.775 18.2065 368.684 26.0995 366.391 35.9724C361.811 55.6923 348.57 82.8109 332.903 112.344C328.018 121.554 322.898 130.996 317.736 140.515C306.362 161.49 294.785 182.841 285.064 202.907C277.996 217.498 271.9 231.426 267.571 244.056C263.245 256.68 260.67 268.042 260.67 277.49Z" stroke="#EA9528" stroke-width="1.08733"/>
<g filter="url(#filter0_f_1305_4158)">
<path d="M196.297 635L348.535 482.762H196.297V635Z" fill="url(#paint0_linear_1305_4158)"/>
</g>
<g filter="url(#filter1_f_1305_4158)">
<path d="M6.0002 222.942L158.238 70.7041V222.942H6.0002Z" fill="url(#paint1_linear_1305_4158)"/>
</g>
<g filter="url(#filter2_dd_1305_4158)">
<rect x="155.158" y="53.2705" width="206.302" height="440.692" rx="25.373" fill="url(#paint2_linear_1305_4158)"/>
</g>
<path d="M181.707 75.6242C181.216 75.6242 180.799 75.4917 180.454 75.2265C180.11 74.9589 179.898 74.6046 179.819 74.1635H180.774C180.836 74.3667 180.95 74.5278 181.116 74.6467C181.284 74.7632 181.484 74.8214 181.714 74.8214C182.106 74.8214 182.412 74.6492 182.632 74.3048C182.853 73.9579 182.963 73.4772 182.963 72.8627H182.93H182.911H182.9C182.774 73.1179 182.589 73.3161 182.346 73.4574C182.103 73.5961 181.825 73.6655 181.51 73.6655C181 73.6655 180.577 73.497 180.243 73.16C179.911 72.823 179.744 72.3968 179.744 71.8815C179.744 71.3314 179.93 70.8804 180.302 70.5286C180.676 70.1742 181.154 69.9971 181.737 69.9971C182.128 69.9971 182.475 70.0875 182.777 70.2684C183.08 70.4493 183.321 70.7119 183.502 71.0563C183.755 71.5048 183.881 72.0698 183.881 72.7512C183.881 73.6531 183.689 74.3581 183.305 74.866C182.921 75.3715 182.388 75.6242 181.707 75.6242ZM180.982 72.6099C181.18 72.8057 181.433 72.9036 181.74 72.9036C182.048 72.9036 182.302 72.8057 182.502 72.6099C182.703 72.4142 182.803 72.1664 182.803 71.8666C182.803 71.5643 182.702 71.3103 182.499 71.1047C182.295 70.899 182.044 70.7962 181.744 70.7962C181.444 70.7962 181.193 70.8978 180.99 71.1009C180.786 71.3016 180.685 71.5519 180.685 71.8517C180.685 72.159 180.784 72.4117 180.982 72.6099ZM185.413 74.9255C185.239 74.9255 185.097 74.8697 184.985 74.7582C184.874 74.6467 184.818 74.5067 184.818 74.3382C184.818 74.1673 184.874 74.0273 184.985 73.9182C185.097 73.8067 185.239 73.751 185.413 73.751C185.589 73.751 185.731 73.8067 185.84 73.9182C185.952 74.0273 186.007 74.1673 186.007 74.3382C186.007 74.5067 185.952 74.6467 185.84 74.7582C185.731 74.8697 185.589 74.9255 185.413 74.9255ZM185.413 72.1379C185.239 72.1379 185.097 72.0834 184.985 71.9744C184.874 71.8629 184.818 71.7229 184.818 71.5544C184.818 71.3834 184.874 71.2434 184.985 71.1344C185.097 71.0229 185.239 70.9671 185.413 70.9671C185.589 70.9671 185.731 71.0229 185.84 71.1344C185.952 71.2434 186.007 71.3834 186.007 71.5544C186.007 71.7229 185.952 71.8629 185.84 71.9744C185.731 72.0834 185.589 72.1379 185.413 72.1379ZM189.561 75.4941V74.4943H186.94V73.6395C187.377 72.8367 188.105 71.6671 189.126 70.1309H190.479V73.6841H191.204V74.4943H190.479V75.4941H189.561ZM187.829 73.6506V73.7064H189.576V70.9114H189.524C188.944 71.7687 188.379 72.6818 187.829 73.6506ZM193.248 75.4941V71.0972H193.185L191.85 72.0338V71.1121L193.252 70.1309H194.207V75.4941H193.248Z" fill="white"/>
<rect opacity="0.35" x="333.793" y="70.4393" width="10.6567" height="5.24376" rx="1.0995" stroke="white" stroke-width="0.50746"/>
<path opacity="0.4" d="M345.211 72.0459V74.0757C345.619 73.9038 345.885 73.5039 345.885 73.0608C345.885 72.6177 345.619 72.2178 345.211 72.0459Z" fill="white"/>
<rect x="334.555" y="71.2002" width="9.13429" height="3.72138" rx="0.676614" fill="white"/>
<path fill-rule="evenodd" clip-rule="evenodd" d="M327.111 71.3429C328.24 71.3429 329.326 71.7764 330.144 72.5536C330.206 72.6136 330.304 72.6128 330.365 72.5519L330.954 71.958C330.985 71.9271 331.002 71.8852 331.002 71.8416C331.001 71.7981 330.984 71.7564 330.953 71.7259C328.805 69.6695 325.417 69.6695 323.27 71.7259C323.239 71.7564 323.221 71.798 323.221 71.8416C323.22 71.8852 323.238 71.927 323.268 71.958L323.857 72.5519C323.918 72.6129 324.017 72.6137 324.078 72.5536C324.896 71.7763 325.982 71.3429 327.111 71.3429ZM327.112 73.2753C327.732 73.2753 328.33 73.5057 328.79 73.9217C328.852 73.9807 328.95 73.9794 329.011 73.9188L329.599 73.3249C329.63 73.2937 329.647 73.2515 329.647 73.2076C329.647 73.1637 329.628 73.1218 329.597 73.0912C328.197 71.7899 326.028 71.7899 324.628 73.0912C324.597 73.1218 324.579 73.1637 324.578 73.2076C324.578 73.2515 324.595 73.2938 324.626 73.3249L325.214 73.9188C325.275 73.9794 325.373 73.9807 325.435 73.9217C325.894 73.5059 326.492 73.2756 327.112 73.2753ZM328.291 74.5751C328.291 74.6191 328.274 74.6615 328.243 74.6924L327.225 75.7185C327.195 75.7486 327.155 75.7656 327.112 75.7656C327.07 75.7656 327.029 75.7486 326.999 75.7185L325.981 74.6924C325.95 74.6615 325.933 74.6191 325.934 74.575C325.935 74.531 325.954 74.4893 325.986 74.4598C326.636 73.9105 327.588 73.9105 328.238 74.4598C328.271 74.4893 328.29 74.531 328.291 74.5751Z" fill="white"/>
<path fill-rule="evenodd" clip-rule="evenodd" d="M320.175 70.3545H319.668C319.387 70.3545 319.16 70.5817 319.16 70.862V75.2599C319.16 75.5402 319.387 75.7674 319.668 75.7674H320.175C320.455 75.7674 320.682 75.5402 320.682 75.2599V70.862C320.682 70.5817 320.455 70.3545 320.175 70.3545ZM317.3 71.5381H317.808C318.088 71.5381 318.315 71.7653 318.315 72.0455V75.2595C318.315 75.5397 318.088 75.7669 317.808 75.7669H317.3C317.02 75.7669 316.793 75.5397 316.793 75.2595V72.0455C316.793 71.7653 317.02 71.5381 317.3 71.5381ZM315.441 72.7227H314.933C314.653 72.7227 314.426 72.9499 314.426 73.2301V75.26C314.426 75.5402 314.653 75.7674 314.933 75.7674H315.441C315.721 75.7674 315.948 75.5402 315.948 75.26V73.2301C315.948 72.9499 315.721 72.7227 315.441 72.7227ZM313.072 73.7374H312.564C312.284 73.7374 312.057 73.9646 312.057 74.2449V75.2598C312.057 75.54 312.284 75.7672 312.564 75.7672H313.072C313.352 75.7672 313.579 75.54 313.579 75.2598V74.2449C313.579 73.9646 313.352 73.7374 313.072 73.7374Z" fill="white"/>
<rect x="224.264" y="465.836" width="67.9997" height="2.5373" rx="1.26865" fill="white"/>
<path opacity="0.5" d="M361.279 145.12H362.04C362.461 145.12 362.802 145.461 362.802 145.881V193.075C362.802 193.496 362.461 193.836 362.04 193.836H361.279V145.12Z" fill="black"/>
<path opacity="0.5" d="M154.742 174.554H153.981C153.561 174.554 153.22 174.895 153.22 175.315V203.225C153.22 203.646 153.561 203.986 153.981 203.986H154.742V174.554Z" fill="black"/>
<path opacity="0.5" d="M154.742 135.479H153.981C153.561 135.479 153.22 135.819 153.22 136.24V164.15C153.22 164.57 153.561 164.911 153.981 164.911H154.742V135.479Z" fill="black"/>
<path opacity="0.5" d="M154.742 104.523H153.981C153.561 104.523 153.22 104.864 153.22 105.285V118.479C153.22 118.899 153.561 119.24 153.981 119.24H154.742V104.523Z" fill="black"/>
<path fill-rule="evenodd" clip-rule="evenodd" d="M218.176 61.3896C219.435 61.3896 220.695 62.6403 220.713 63.8999V64.7376C220.713 68.7741 223.985 72.0463 228.022 72.0463H288.508C292.545 72.0463 295.817 68.7741 295.817 64.7376V61.3896H220.713H220.713H218.176ZM295.818 63.9269C295.818 62.4771 296.906 61.3896 298.355 61.3896H295.818V63.9269Z" fill="url(#paint3_linear_1305_4158)"/>
<g opacity="0.75">
<rect x="247.102" y="62.4043" width="21.8208" height="3.55222" rx="1.77611" fill="black"/>
<rect x="247.102" y="62.4043" width="21.8208" height="3.55222" rx="1.77611" fill="black"/>
</g>
<circle cx="273.236" cy="64.1807" r="2.79103" fill="black"/>
<circle cx="273.236" cy="64.1807" r="2.79103" fill="black"/>
<circle cx="273.236" cy="64.1807" r="2.79103" fill="black"/>
<circle cx="273.236" cy="64.1807" r="2.79103" fill="black"/>
<circle opacity="0.15" cx="273.237" cy="64.1804" r="1.77611" fill="white"/>
<defs>
<filter id="filter0_f_1305_4158" x="191.222" y="477.687" width="162.387" height="162.387" filterUnits="userSpaceOnUse" color-interpolation-filters="sRGB">
<feFlood flood-opacity="0" result="BackgroundImageFix"/>
<feBlend mode="normal" in="SourceGraphic" in2="BackgroundImageFix" result="shape"/>
<feGaussianBlur stdDeviation="2.5373" result="effect1_foregroundBlur_1305_4158"/>
</filter>
<filter id="filter1_f_1305_4158" x="0.925397" y="65.6295" width="162.387" height="162.387" filterUnits="userSpaceOnUse" color-interpolation-filters="sRGB">
<feFlood flood-opacity="0" result="BackgroundImageFix"/>
<feBlend mode="normal" in="SourceGraphic" in2="BackgroundImageFix" result="shape"/>
<feGaussianBlur stdDeviation="2.5373" result="effect1_foregroundBlur_1305_4158"/>
</filter>
<filter id="filter2_dd_1305_4158" x="38.4471" y="17.7483" width="358.541" height="592.93" filterUnits="userSpaceOnUse" color-interpolation-filters="sRGB">
<feFlood flood-opacity="0" result="BackgroundImageFix"/>
<feColorMatrix in="SourceAlpha" type="matrix" values="0 0 0 0 0 0 0 0 0 0 0 0 0 0 0 0 0 0 127 0" result="hardAlpha"/>
<feOffset dx="-40.5921" dy="40.5968"/>
<feGaussianBlur stdDeviation="38.0595"/>
<feColorMatrix type="matrix" values="0 0 0 0 0 0 0 0 0 0 0 0 0 0 0 0 0 0 0.25 0"/>
<feBlend mode="normal" in2="BackgroundImageFix" result="effect1_dropShadow_1305_4158"/>
<feColorMatrix in="SourceAlpha" type="matrix" values="0 0 0 0 0 0 0 0 0 0 0 0 0 0 0 0 0 0 127 0" result="hardAlpha"/>
<feOffset dx="-10.1504" dy="10.1492"/>
<feGaussianBlur stdDeviation="12.6865"/>
<feColorMatrix type="matrix" values="0 0 0 0 0 0 0 0 0 0 0 0 0 0 0 0 0 0 0.35 0"/>
<feBlend mode="normal" in2="effect1_dropShadow_1305_4158" result="effect2_dropShadow_1305_4158"/>
<feBlend mode="normal" in="SourceGraphic" in2="effect2_dropShadow_1305_4158" result="shape"/>
</filter>
<linearGradient id="paint0_linear_1305_4158" x1="342.052" y1="457.683" x2="261.961" y2="553.225" gradientUnits="userSpaceOnUse">
<stop stop-opacity="0.35"/>
<stop offset="1" stop-opacity="0"/>
</linearGradient>
<linearGradient id="paint1_linear_1305_4158" x1="155.514" y1="74.4836" x2="74.3562" y2="155.892" gradientUnits="userSpaceOnUse">
<stop stop-opacity="0.35"/>
<stop offset="0.796875" stop-opacity="0"/>
</linearGradient>
<linearGradient id="paint2_linear_1305_4158" x1="180.342" y1="53.2705" x2="350.361" y2="152.011" gradientUnits="userSpaceOnUse">
<stop stop-color="#3E3E3E"/>
<stop offset="1"/>
</linearGradient>
<linearGradient id="paint3_linear_1305_4158" x1="218.176" y1="61.3896" x2="297.848" y2="61.3896" gradientUnits="userSpaceOnUse">
<stop stop-color="#323232"/>
<stop offset="1" stop-color="#1D1D1D"/>
</linearGradient>
</defs>
</svg>
